<svg width="25" height="28" viewBox="0 0 25 28" fill="none" xmlns="http://www.w3.org/2000/svg">
<path d="M21.875 11.6667C21.875 19.8333 12.5 26.8333 12.5 26.8333C12.5 26.8333 3.125 19.8333 3.125 11.6667C3.125 8.88188 4.11272 6.21117 5.87087 4.24203C7.62903 2.2729 10.0136 1.16666 12.5 1.16666C14.9864 1.16666 17.371 2.2729 19.1291 4.24203C20.8873 6.21117 21.875 8.88188 21.875 11.6667Z" stroke="black" stroke-width="2" stroke-linecap="round" stroke-linejoin="round"/>
<path d="M12.5 15.1667C14.2259 15.1667 15.625 13.5997 15.625 11.6667C15.625 9.73366 14.2259 8.16666 12.5 8.16666C10.7741 8.16666 9.375 9.73366 9.375 11.6667C9.375 13.5997 10.7741 15.1667 12.5 15.1667Z" stroke="black" stroke-width="2" stroke-linecap="round" stroke-linejoin="round"/>
</svg>
